{"title":"Power Rangers 2017 BluRay 1080p DD5.1 10Bit H265-d3g","magnet":"magnet:?xt=urn:btih:6c26069f586dff0b265a4859718fa570cd66d379&dn=Power+Rangers+2017+BluRay+1080p+DD5.1+10Bit+H265-d3g&tr=udp%3A%2F%2Ftracker.leechers-paradise.org%3A6969&tr=udp%3A%2F%2Fzer0day.ch%3A1337&tr=udp%3A%2F%2Fopen.demonii.com%3A1337&tr=udp%3A%2F%2Ftracker.coppersurfer.tk%3A6969&tr=udp%3A%2F%2Fexodus.desync.com%3A6969","uploader":"roflcopter2110","categoryP":"video","categoryS":"hd___movies","size":"2460934464","seeders":"1","leechers":"170","description":"Power Rangers 2017 BluRay 1080p DD5.1 10Bit H265-d3g\r\n <a href=\"\nhttps://extraimage.net/images/2017/06/19/ed68ac0a0c1df596449da58b93c351b5.jpg\" rel=\"nofollow\" target=\"_NEW\">\nhttps://extraimage.net/images/2017/06/19/ed68ac0a0c1df596449da58b93c351b5.jpg</a>\r\n\r\nPlot:\r\nFive ordinary teens must become something extraordinary when they learn that their small town of Angel Grove - and the world - is on the verge of being obliterated by an alien threat. Chosen by destiny, our heroes quickly discover they are the only ones who can save the planet. But to do so, they will have to overcome their real-life issues and before it&apos;s too late, band together as the Power Rangers.\r\n\r\nInfo:\r\nSource: BluRay ISO\r\n\r\nFormat: Matroska\r\nFormat version: Version 4 / Version 2\r\nFile size: 2.29 GiB\r\nDuration: 2 h 3 min\r\nOverall bit rate: 2 647 kb/s\r\nMovie name: Power Rangers 2017 BluRay 1080p DD5.1 10Bit H265-d3g\r\nEncoded date: UTC 2017-06-18 12:14:34\r\nWriting application: DVDFab 10.0.4.2\r\nWriting library: libebml v1.3.4 + libmatroska v1.4.5\r\n\r\nVideo\r\nID: 1\r\nFormat: HEVC\r\nFormat/Info: High Efficiency Video Coding\r\nFormat profile: Main <a class=\"__cf_email__\" href=\"/cdn-cgi/l/email-protection\" data-cfemail=\"437273030f77\">[email&#xA0;protected]</a><script data-cfhash=\"f9e31\" type=\"text/javascript\">/* <![CDATA[ */!function(t,e,r,n,c,a,p){try{t=document.currentScript||function(){for(t=document.getElementsByTagName('script'),e=t.length;e--;)if(t[e].getAttribute('data-cfhash'))return t[e]}();if(t&&(c=t.previousSibling)){p=t.parentNode;if(a=c.getAttribute('data-cfemail')){for(e='',r='0x'+a.substr(0,2)|0,n=2;a.length-n;n+=2)e+='%'+('0'+('0x'+a.substr(n,2)^r).toString(16)).slice(-2);p.replaceChild(document.createTextNode(decodeURIComponent(e)),c)}p.removeChild(t)}}catch(u){}}()/* ]]> */</script>@Main\r\nCodec ID: V_MPEGH/ISO/HEVC\r\nDuration: 2 h 3 min\r\nBit rate: 2 179 kb/s\r\nWidth: 1 920 pixels\r\nHeight: 800 pixels\r\nDisplay aspect ratio: 2.40:1\r\nFrame rate mode: Constant\r\nFrame rate: 23.976 (24000/1001) FPS\r\nColor space: YUV\r\nChroma subsampling: 4:2:0\r\nBit depth: 10 bits\r\nBits/(Pixel*Frame): 0.059\r\nStream size: 1.89 GiB (82%)\r\nDefault: Yes\r\nForced: No\r\nColor range: Limited\r\nColor primaries: BT.709\r\nTransfer characteristics: BT.709\r\nMatrix coefficients: BT.709\r\n\r\nAudio\r\nID: 2\r\nFormat: AC-3\r\nFormat/Info: Audio Coding 3\r\nFormat settings, Endianness: Big\r\nCodec ID: A_AC3\r\nDuration: 2 h 3 min\r\nBit rate mode: Constant\r\nBit rate: 448 kb/s\r\nChannel(s): 6 channels\r\nChannel positions: Front: L C R, Side: L R, LFE\r\nSampling rate: 48.0 kHz\r\nFrame rate: 31.250 FPS (1536 spf)\r\nBit depth: 16 bits\r\nCompression mode: Lossy\r\nStream size: 397 MiB (17%)\r\nLanguage: English\r\nService kind: Complete Main\r\nDefault: Yes\r\nForced: No\r\n\r\nText #1\r\nID: 3\r\nFormat: VobSub\r\nCodec ID: S_VOBSUB\r\nCodec ID/Info: Picture based subtitle format used on DVDs\r\nDuration: 1 h 55 min\r\nBit rate: 11.3 kb/s\r\nCount of elements: 1890\r\nStream size: 9.34 MiB (0%)\r\nLanguage: English\r\nDefault: No\r\nForced: No\r\n\r\nText #2\r\nID: 4\r\nFormat: VobSub\r\nCodec ID: S_VOBSUB\r\nCodec ID/Info: Picture based subtitle format used on DVDs\r\nDuration: 1 h 55 min\r\nBit rate: 8 635 b/s\r\nCount of elements: 1600\r\nStream size: 7.11 MiB (0%)\r\nLanguage: Spanish\r\nDefault: No\r\nForced : No\r\n\r\nScreens: <a href=\"\nhttps://extraimage.net/images/2017/06/19/2f1ff7a63f4deb26bce981180a951875.png\" rel=\"nofollow\" target=\"_NEW\">\nhttps://extraimage.net/images/2017/06/19/2f1ff7a63f4deb26bce981180a951875.png</a> <a href=\"\nhttps://extraimage.net/images/2017/06/19/d642bff0a79cf9747bdc15314c0b23a3.png\" rel=\"nofollow\" target=\"_NEW\">\nhttps://extraimage.net/images/2017/06/19/d642bff0a79cf9747bdc15314c0b23a3.png</a> <a href=\"\nhttps://extraimage.net/images/2017/06/19/0d95223b5a93a7d78222716619dada6c.png\" rel=\"nofollow\" target=\"_NEW\">\nhttps://extraimage.net/images/2017/06/19/0d95223b5a93a7d78222716619dada6c.png</a>","last_updated":"2017-06-19T12:04:36.238Z","parsed":{"xt":"urn:btih:6c26069f586dff0b265a4859718fa570cd66d379","dn":"Power Rangers 2017 BluRay 1080p DD5.1 10Bit H265-d3g","tr":["udp://exodus.desync.com:6969","udp://open.demonii.com:1337","udp://tracker.coppersurfer.tk:6969","udp://tracker.leechers-paradise.org:6969","udp://zer0day.ch:1337"],"infoHash":"6c26069f586dff0b265a4859718fa570cd66d379","infoHashBuffer":{"type":"Buffer","data":[108,38,6,159,88,109,255,11,38,90,72,89,113,143,165,112,205,102,211,121]},"name":"Power Rangers 2017 BluRay 1080p DD5.1 10Bit H265-d3g","announce":["udp://exodus.desync.com:6969","udp://open.demonii.com:1337","udp://tracker.coppersurfer.tk:6969","udp://tracker.leechers-paradise.org:6969","udp://zer0day.ch:1337"],"urlList":[]}}